<svg width="149" height="149" viewBox="0 0 149 149" fill="none" xmlns="http://www.w3.org/2000/svg">
<path d="M74.4998 78.2234C88.8746 78.2234 100.575 66.5269 100.575 52.1484V37.2484C100.575 35.1912 98.9071 33.5234 96.8498 33.5234C94.7926 33.5234 93.1248 35.1912 93.1248 37.2484V52.1484C93.1248 62.4183 84.7696 70.7734 74.4998 70.7734C64.23 70.7734 55.8748 62.4183 55.8748 52.1484V37.2484C55.8748 35.1912 54.2071 33.5234 52.1498 33.5234C50.0925 33.5234 48.4248 35.1912 48.4248 37.2484V52.1484C48.4248 66.5269 60.125 78.2234 74.4998 78.2234Z" fill="#1E1E1E"/>
<path d="M0 134.1C0 142.295 6.705 149 14.9 149H134.1C142.295 149 149 142.295 149 134.1V3.725C149 1.66774 147.332 0 145.275 0H3.72501C1.66774 0 0 1.66774 0 3.725V134.1ZM7.45 11.175C7.45 9.11774 9.11774 7.45 11.175 7.45H137.825C139.882 7.45 141.55 9.11774 141.55 11.175V134.1C141.55 138.209 138.209 141.55 134.1 141.55H14.9C10.7913 141.55 7.45 138.209 7.45 134.1V11.175Z" fill="#1E1E1E"/>
</svg>
