<svg width="15" height="25" viewBox="0 0 15 25" fill="none" xmlns="http://www.w3.org/2000/svg">
<path d="M8.11773 10.1533H14.1225L13.4553 12.8221H8.11773V24.8317H5.44893V12.8221H0.111328V10.1533H5.44893V7.6553C5.44893 5.27607 5.69713 4.41271 6.1615 3.54268C6.61693 2.68333 7.31976 1.9805 8.17911 1.52507C9.04914 1.0607 9.91249 0.8125 12.2917 0.8125C12.9892 0.8125 13.5994 0.879219 14.1225 1.01266V3.4813H12.2917C10.525 3.4813 9.98722 3.58538 9.43745 3.87895C9.04286 4.08512 8.72101 4.40738 8.51538 4.80236C8.22181 5.3508 8.11773 5.88856 8.11773 7.6553V10.1533Z" fill="#1A1A1A"/>
</svg>
