<svg width="31" height="31" viewBox="0 0 31 31" fill="none" xmlns="http://www.w3.org/2000/svg">
<path d="M11.477 23.0136C14.0769 23.0136 16.4694 22.143 18.3926 20.685C18.7354 20.4252 19.2211 20.4399 19.5253 20.744L28.9327 30.1515C29.2528 30.4716 29.7718 30.4716 30.0919 30.1515C30.412 29.8314 30.412 29.3124 30.0919 28.9923L20.6844 19.5848C20.3803 19.2807 20.3656 18.795 20.6254 18.4522C22.0834 16.529 22.954 14.1364 22.954 11.5366C22.954 5.198 17.8156 0.0595703 11.477 0.0595703C5.13843 0.0595703 0 5.198 0 11.5366C0 17.8752 5.13843 23.0136 11.477 23.0136ZM11.477 1.69914C16.9016 1.69914 21.3145 6.11206 21.3145 11.5366C21.3145 16.9611 16.9016 21.374 11.477 21.374C6.05249 21.374 1.63957 16.9611 1.63957 11.5366C1.63957 6.11206 6.05249 1.69914 11.477 1.69914Z" fill="#1E1E1E"/>
</svg>
