<svg width="75" height="75" viewBox="0 0 75 75" fill="none" xmlns="http://www.w3.org/2000/svg">
<path d="M37.3445 74.688C16.72 74.688 0.000473022 57.9685 0.000473022 37.344C0.000473022 16.7195 16.72 0 37.3445 0C57.969 0 74.6885 16.7195 74.6885 37.344C74.6885 57.9685 57.969 74.688 37.3445 74.688Z" fill="#2C2C2C"/>
<path d="M41.6885 29.4137L40.2734 28L32.5659 35.7049C32.4416 35.8284 32.343 35.9752 32.2758 36.1369C32.2084 36.2986 32.1738 36.472 32.1738 36.6471C32.1738 36.8224 32.2084 36.9958 32.2758 37.1574C32.343 37.3192 32.4416 37.466 32.5659 37.5894L40.2734 45.2983L41.6871 43.8845L34.4531 36.6491L41.6885 29.4137Z" fill="white"/>
</svg>
