<svg width="76" height="75" viewBox="0 0 76 75" fill="none" xmlns="http://www.w3.org/2000/svg">
<path d="M38.0325 74.688C58.657 74.688 75.3765 57.9685 75.3765 37.344C75.3765 16.7195 58.657 0 38.0325 0C17.408 0 0.688477 16.7195 0.688477 37.344C0.688477 57.9685 17.408 74.688 38.0325 74.688Z" fill="#2C2C2C"/>
<path d="M33.6885 29.4137L35.1035 28L42.8111 35.7049C42.9354 35.8284 43.0339 35.9752 43.1012 36.1369C43.1685 36.2986 43.2032 36.472 43.2032 36.6471C43.2032 36.8224 43.1685 36.9958 43.1012 37.1574C43.0339 37.3192 42.9354 37.466 42.8111 37.5894L35.1035 45.2983L33.6898 43.8845L40.9239 36.6491L33.6885 29.4137Z" fill="white"/>
</svg>
