<svg width="42" height="42" viewBox="0 0 42 42" fill="none" xmlns="http://www.w3.org/2000/svg">
<g clip-path="url(#clip0_1_556)">
<path d="M20.7699 28.5584C25.0648 28.5584 28.5584 25.0648 28.5584 20.7699C28.5584 16.475 25.0648 12.9814 20.7699 12.9814C16.4759 12.9814 12.9814 16.475 12.9814 20.7699C12.9814 25.0648 16.4759 28.5584 20.7699 28.5584ZM26.8276 20.7699C26.8276 24.1094 24.1094 26.8276 20.7699 26.8276C17.4295 26.8276 14.7122 24.1094 14.7122 20.7699C14.7122 17.4304 17.4295 14.7122 20.7699 14.7122C24.1094 14.7122 26.8276 17.4304 26.8276 20.7699Z" fill="#1E1E1E"/>
<path d="M21.636 7.78981V4.32828C21.636 3.85034 21.2486 3.46289 20.7707 3.46289C20.2927 3.46289 19.9053 3.85034 19.9053 4.32828V7.78981C19.9053 8.26775 20.2927 8.6552 20.7707 8.6552C21.2486 8.6552 21.636 8.26775 21.636 7.78981Z" fill="#1E1E1E"/>
<path d="M21.636 37.2127V33.7511C21.636 33.2732 21.2486 32.8857 20.7707 32.8857C20.2927 32.8857 19.9053 33.2732 19.9053 33.7511V37.2127C19.9053 37.6906 20.2927 38.0781 20.7707 38.0781C21.2486 38.0781 21.636 37.6906 21.636 37.2127Z" fill="#1E1E1E"/>
<path d="M7.78981 19.9053H4.32828C3.85034 19.9053 3.46289 20.2927 3.46289 20.7707C3.46289 21.2486 3.85034 21.636 4.32828 21.636H7.78981C8.26775 21.636 8.6552 21.2486 8.6552 20.7707C8.6552 20.2927 8.26775 19.9053 7.78981 19.9053Z" fill="#1E1E1E"/>
<path d="M37.2127 19.9053H33.7511C33.2732 19.9053 32.8857 20.2927 32.8857 20.7707C32.8857 21.2486 33.2732 21.636 33.7511 21.636H37.2127C37.6906 21.636 38.0781 21.2486 38.0781 20.7707C38.0781 20.2927 37.6906 19.9053 37.2127 19.9053Z" fill="#1E1E1E"/>
<path d="M15.0292 9.0962L13.2988 6.09817C13.0599 5.68422 12.5306 5.54234 12.1167 5.78126C11.7028 6.02018 11.5609 6.54943 11.7998 6.96338L13.5302 9.96142C13.7691 10.3754 14.2984 10.5172 14.7123 10.2783C15.1263 10.0394 15.2682 9.51015 15.0292 9.0962Z" fill="#1E1E1E"/>
<path d="M29.7395 34.5761L28.0087 31.5784C27.7697 31.1645 27.2405 31.0227 26.8266 31.2616C26.4127 31.5006 26.2709 32.0299 26.5098 32.4438L28.2406 35.4415C28.4796 35.8553 29.0088 35.9972 29.4227 35.7582C29.8366 35.5192 29.9784 34.99 29.7395 34.5761Z" fill="#1E1E1E"/>
<path d="M9.09423 26.5128L6.09619 28.2432C5.68225 28.4821 5.54036 29.0113 5.77929 29.4253C6.01821 29.8392 6.54746 29.9811 6.9614 29.7422L9.95944 28.0118C10.3734 27.7728 10.5153 27.2436 10.2763 26.8297C10.0374 26.4157 9.50817 26.2738 9.09423 26.5128Z" fill="#1E1E1E"/>
<path d="M34.5776 11.8008L31.5796 13.5313C31.1656 13.7702 31.0238 14.2994 31.2627 14.7134C31.5016 15.1273 32.0309 15.2692 32.4448 15.0303L35.4428 13.2999C35.8568 13.0609 35.9987 12.5317 35.7597 12.1177C35.5208 11.7038 34.9916 11.5619 34.5776 11.8008Z" fill="#1E1E1E"/>
<path d="M9.96113 13.5318L6.96344 11.801C6.54955 11.5621 6.02029 11.7039 5.78133 12.1178C5.54236 12.5317 5.68416 13.0609 6.09806 13.2999L9.09575 15.0306C9.50964 15.2696 10.0389 15.1278 10.2779 14.7139C10.5168 14.3 10.375 13.7708 9.96113 13.5318Z" fill="#1E1E1E"/>
<path d="M35.4406 28.2427L32.4429 26.512C32.029 26.273 31.4998 26.4148 31.2608 26.8287C31.0218 27.2426 31.1637 27.7718 31.5775 28.0108L34.5752 29.7416C34.9891 29.9806 35.5184 29.8388 35.7574 29.4249C35.9963 29.011 35.8545 28.4817 35.4406 28.2427Z" fill="#1E1E1E"/>
<path d="M13.5302 31.5767L11.7998 34.5747C11.5609 34.9887 11.7028 35.5179 12.1167 35.7568C12.5306 35.9957 13.0599 35.8539 13.2988 35.4399L15.0292 32.4419C15.2682 32.0279 15.1263 31.4987 14.7123 31.2598C14.2984 31.0208 13.7691 31.1627 13.5302 31.5767Z" fill="#1E1E1E"/>
<path d="M28.2397 6.09793L26.5098 9.09522C26.2708 9.50916 26.4127 10.0384 26.8267 10.2773C27.2406 10.5163 27.7699 10.3744 28.0088 9.96043L29.7388 6.96314C29.9777 6.5492 29.8358 6.01995 29.4219 5.78102C29.0079 5.5421 28.4787 5.68399 28.2397 6.09793Z" fill="#1E1E1E"/>
</g>
<defs>
<clipPath id="clip0_1_556">
<rect width="41.5385" height="41.5385" rx="1" fill="white"/>
</clipPath>
</defs>
</svg>
