<svg width="28" height="28" viewBox="0 0 28 28" fill="none" xmlns="http://www.w3.org/2000/svg">
<g clip-path="url(#clip0_2642_213)">
<path d="M17.4987 2.33398H10.4987C9.21536 2.33398 8.16536 3.38398 8.16536 4.66732V7.58398H4.08203V8.75065H5.83203V23.334C5.83203 24.6173 6.88203 25.6673 8.16536 25.6673H19.832C21.1154 25.6673 22.1654 24.6173 22.1654 23.334V8.75065H23.9154V7.58398H19.832V4.66732C19.832 3.38398 18.782 2.33398 17.4987 2.33398ZM9.33203 4.66732C9.33203 4.0239 9.85528 3.50065 10.4987 3.50065H17.4987C18.1421 3.50065 18.6654 4.0239 18.6654 4.66732V7.58398H9.33203V4.66732ZM20.9987 23.334C20.9987 23.9774 20.4754 24.5007 19.832 24.5007H8.16536C7.52195 24.5007 6.9987 23.9774 6.9987 23.334V8.75065H20.9987V23.334Z" fill="#FF0000"/>
<path d="M12.2487 12.25H11.082V20.4167H12.2487V12.25Z" fill="#FF0000"/>
<path d="M16.9157 12.25H15.749V20.4167H16.9157V12.25Z" fill="#FF0000"/>
</g>
<defs>
<clipPath id="clip0_2642_213">
<rect width="28" height="28" fill="white"/>
</clipPath>
</defs>
</svg>
