<svg width="231" height="231" viewBox="0 0 231 231" fill="none" xmlns="http://www.w3.org/2000/svg">
<path d="M115.499 121.275C137.785 121.275 155.924 103.141 155.924 80.8496V57.7496C155.924 54.5602 153.339 51.9746 150.149 51.9746C146.96 51.9746 144.374 54.5602 144.374 57.7496V80.8496C144.374 96.7713 131.421 109.725 115.499 109.725C99.5775 109.725 86.6242 96.7713 86.6242 80.8496V57.7496C86.6242 54.5602 84.0387 51.9746 80.8492 51.9746C77.6598 51.9746 75.0742 54.5602 75.0742 57.7496V80.8496C75.0742 103.141 93.2135 121.275 115.499 121.275Z" fill="#F8F6F1"/>
<path d="M0 207.9C0 220.605 10.395 231 23.1 231H207.9C220.605 231 231 220.605 231 207.9V5.775C231 2.58556 228.414 0 225.225 0H5.77499C2.58555 0 0 2.58556 0 5.775V207.9ZM11.55 17.325C11.55 14.1355 14.1356 11.55 17.325 11.55H213.675C216.864 11.55 219.45 14.1356 219.45 17.325V207.9C219.45 214.27 214.27 219.45 207.9 219.45H23.1C16.7302 219.45 11.55 214.27 11.55 207.9V17.325Z" fill="#F8F6F1"/>
</svg>
