<svg width="29" height="29" viewBox="0 0 29 29" fill="none" xmlns="http://www.w3.org/2000/svg">
<path d="M14.7851 7.24032C13.3423 7.24032 11.9319 7.66813 10.7322 8.4697C9.53275 9.27127 8.59774 10.4106 8.04556 11.7435C7.49352 13.0764 7.349 14.5431 7.63043 15.9582C7.91199 17.3732 8.60667 18.6731 9.62682 19.6932C10.6471 20.7134 11.9468 21.4082 13.3619 21.6896C14.7769 21.971 16.2437 21.8266 17.5766 21.2745C18.9096 20.7224 20.0488 19.7874 20.8503 18.5878C21.6519 17.3882 22.0797 15.9778 22.0797 14.5351C22.0821 13.5764 21.895 12.6268 21.5293 11.7407C21.1635 10.8547 20.6263 10.0495 19.9484 9.37162C19.2705 8.69388 18.4655 8.15665 17.5793 7.79089C16.6933 7.42513 15.7436 7.23805 14.7851 7.24032ZM14.7851 19.2855C13.8455 19.2855 12.9271 19.0069 12.1458 18.4849C11.3646 17.9629 10.7557 17.221 10.3961 16.3529C10.0366 15.4849 9.94254 14.5297 10.1259 13.6083C10.3091 12.6868 10.7616 11.8404 11.426 11.176C12.0903 10.5116 12.9368 10.0591 13.8582 9.87589C14.7797 9.69254 15.7349 9.78662 16.6029 10.1462C17.471 10.5057 18.2129 11.1146 18.7349 11.8959C19.2569 12.6771 19.5355 13.5955 19.5355 14.5351C19.5355 15.795 19.035 17.0033 18.1442 17.8942C17.2532 18.785 16.0449 19.2855 14.7851 19.2855ZM24.0903 6.93781C24.0903 7.28982 23.9859 7.6337 23.7904 7.92633C23.5949 8.21897 23.317 8.44702 22.9919 8.58166C22.6668 8.7163 22.3091 8.75153 21.9639 8.68294C21.6188 8.61422 21.3018 8.44475 21.053 8.19601C20.8042 7.94715 20.6347 7.6301 20.566 7.28502C20.4974 6.93981 20.5326 6.58206 20.6672 6.257C20.8019 5.93194 21.0299 5.65398 21.3226 5.45849C21.6152 5.263 21.9592 5.15865 22.3111 5.15865C22.7829 5.15865 23.2354 5.34613 23.5692 5.67973C23.9028 6.01347 24.0903 6.46597 24.0903 6.93781ZM28.9118 8.7171C28.9656 6.50493 28.1403 4.36162 26.6167 2.75673C25.8263 1.99279 24.8932 1.39204 23.8703 0.989054C22.8477 0.586066 21.7555 0.388707 20.6564 0.408189C18.3434 0.301437 11.2266 0.301437 8.91372 0.408189C6.70249 0.360284 4.56131 1.18481 2.95336 2.70336C1.42987 4.30824 0.604546 6.45155 0.658189 8.66372C0.551437 10.9766 0.551437 18.0934 0.658189 20.4064C0.604546 22.6186 1.42987 24.7619 2.95336 26.3667C4.56131 27.8852 6.70249 28.7097 8.91372 28.6618C11.2623 28.8042 18.3079 28.8042 20.6564 28.6618C22.8686 28.7156 25.0119 27.8903 26.6167 26.3667C28.1403 24.7619 28.9656 22.6186 28.9118 20.4064C29.0186 18.0934 29.0186 10.9766 28.9118 8.66372V8.7171ZM25.8873 22.9506C25.6456 23.5626 25.2809 24.1183 24.8158 24.5837C24.3506 25.0488 23.7948 25.4135 23.1829 25.655C20.4208 26.2135 17.5972 26.405 14.7851 26.2244C11.9788 26.4034 9.16125 26.2119 6.40505 25.655C5.79309 25.4135 5.23731 25.0488 4.77201 24.5837C4.30684 24.1183 3.94215 23.5626 3.70062 22.9506C2.95336 21.0647 3.11349 16.6167 3.11349 14.5528C3.11349 12.4889 2.95336 8.02321 3.70062 6.15505C3.93534 5.53709 4.2975 4.97531 4.76334 4.5064C5.22931 4.03736 5.78856 3.6716 6.40505 3.43287C9.16125 2.87603 11.9788 2.68454 14.7851 2.86349C17.5972 2.68294 20.4208 2.87443 23.1829 3.43287C23.7948 3.6744 24.3506 4.03909 24.8158 4.50426C25.2809 4.96957 25.6456 5.52534 25.8873 6.13717C26.6346 8.02321 26.4565 12.4712 26.4565 14.5351C26.4565 16.5989 26.6346 21.0647 25.8873 22.9329V22.9506Z" fill="#F8F6F1"/>
</svg>
