<svg width="23" height="29" viewBox="0 0 23 29" fill="none" xmlns="http://www.w3.org/2000/svg">
<path d="M20.3812 11.5332C20.3812 9.14437 19.4322 6.85334 17.7431 5.16412C16.0539 3.47504 13.7629 2.52601 11.374 2.52601C8.98519 2.52601 6.69416 3.47504 5.00494 5.16412C3.31586 6.85334 2.36683 9.14437 2.36683 11.5332C2.36683 15.2282 5.3232 20.044 11.374 25.8126C17.4249 20.044 20.3812 15.2282 20.3812 11.5332ZM11.374 28.5468C4.03417 21.8755 0.365234 16.2029 0.365234 11.5332C0.365234 8.61355 1.5251 5.81331 3.58968 3.74886C5.65413 1.68428 8.45437 0.524414 11.374 0.524414C14.2937 0.524414 17.0939 1.68428 19.1584 3.74886C21.223 5.81331 22.3828 8.61355 22.3828 11.5332C22.3828 16.2029 18.7139 21.8755 11.374 28.5468Z" fill="#F8F6F1"/>
</svg>
