<svg width="31" height="31" viewBox="0 0 31 31" fill="none" xmlns="http://www.w3.org/2000/svg">
<path d="M11.477 23.0141C14.0769 23.0141 16.4694 22.1434 18.3926 20.6855C18.7354 20.4256 19.2211 20.4403 19.5253 20.7445L28.9327 30.152C29.2528 30.4721 29.7718 30.4721 30.0919 30.152C30.412 29.8319 30.412 29.3129 30.0919 28.9928L20.6844 19.5853C20.3803 19.2812 20.3656 18.7955 20.6254 18.4527C22.0834 16.5295 22.954 14.1369 22.954 11.5371C22.954 5.19848 17.8156 0.0600586 11.477 0.0600586C5.13843 0.0600586 0 5.19848 0 11.5371C0 17.8757 5.13843 23.0141 11.477 23.0141ZM11.477 1.69963C16.9016 1.69963 21.3145 6.11255 21.3145 11.5371C21.3145 16.9616 16.9016 21.3745 11.477 21.3745C6.05249 21.3745 1.63957 16.9616 1.63957 11.5371C1.63957 6.11255 6.05249 1.69963 11.477 1.69963Z" fill="white"/>
</svg>
