<svg width="75" height="75" viewBox="0 0 75 75" fill="none" xmlns="http://www.w3.org/2000/svg">
<g clip-path="url(#clip0_1_2959)">
<g clip-path="url(#clip1_1_2959)">
<g clip-path="url(#clip2_1_2959)">
<path d="M37.3445 74.689C16.72 74.689 0.000473022 57.9695 0.000473022 37.345C0.000473022 16.7205 16.72 0.000976562 37.3445 0.000976562C57.969 0.000976562 74.6885 16.7205 74.6885 37.345C74.6885 57.9695 57.969 74.689 37.3445 74.689Z" fill="white"/>
<path d="M40.7432 30.1166L39.3281 28.7029L31.6206 36.4077C31.4963 36.5312 31.3977 36.6781 31.3305 36.8397C31.2631 37.0015 31.2284 37.1749 31.2284 37.35C31.2284 37.5253 31.2631 37.6986 31.3305 37.8603C31.3977 38.0221 31.4963 38.1689 31.6206 38.2923L39.3281 46.0012L40.7418 44.5874L33.5078 37.352L40.7432 30.1166Z" fill="black"/>
</g>
</g>
</g>
<defs>
<clipPath id="clip0_1_2959">
<rect width="74.69" height="74.69" fill="white" transform="matrix(-1 0 0 1 74.6895 0)"/>
</clipPath>
<clipPath id="clip1_1_2959">
<rect width="74.69" height="74.69" fill="white" transform="matrix(-1 0 0 1 74.6895 0)"/>
</clipPath>
<clipPath id="clip2_1_2959">
<rect width="74.688" height="74.688" fill="white" transform="matrix(-1 0 0 1 74.6885 0.000976562)"/>
</clipPath>
</defs>
</svg>
