<svg width="76" height="75" viewBox="0 0 76 75" fill="none" xmlns="http://www.w3.org/2000/svg">
<g clip-path="url(#clip0_1_2960)">
<g clip-path="url(#clip1_1_2960)">
<g clip-path="url(#clip2_1_2960)">
<path d="M38.0344 74.689C58.659 74.689 75.3784 57.9695 75.3784 37.345C75.3784 16.7205 58.659 0.000976562 38.0344 0.000976562C17.4099 0.000976562 0.69043 16.7205 0.69043 37.345C0.69043 57.9695 17.4099 74.689 38.0344 74.689Z" fill="white"/>
<path d="M34.6357 30.1166L36.0508 28.7029L43.7583 36.4077C43.8827 36.5312 43.9812 36.6781 44.0484 36.8397C44.1158 37.0015 44.1505 37.1749 44.1505 37.35C44.1505 37.5253 44.1158 37.6986 44.0484 37.8603C43.9812 38.0221 43.8827 38.1689 43.7583 38.2923L36.0508 46.0012L34.6371 44.5874L41.8711 37.352L34.6357 30.1166Z" fill="black"/>
</g>
</g>
</g>
<defs>
<clipPath id="clip0_1_2960">
<rect width="74.69" height="74.69" fill="white" transform="translate(0.689453)"/>
</clipPath>
<clipPath id="clip1_1_2960">
<rect width="74.69" height="74.69" fill="white" transform="translate(0.689453)"/>
</clipPath>
<clipPath id="clip2_1_2960">
<rect width="74.688" height="74.688" fill="white" transform="translate(0.69043 0.000976562)"/>
</clipPath>
</defs>
</svg>
