<svg width="45" height="45" viewBox="0 0 45 45" fill="none" xmlns="http://www.w3.org/2000/svg">
<g clip-path="url(#clip0_1_2768)">
<path d="M22.2448 39.8499C15.1998 39.9324 8.52171 35.409 5.9287 28.8727L7.13623 27.6652C19.9224 32.9281 32.9292 19.913 27.669 7.13332L28.8766 5.92578C46.6217 13.4398 41.5052 39.5979 22.2448 39.8499ZM33.3851 11.1016C32.3935 10.1109 31.2953 9.2676 30.1026 8.57996C33.6409 21.4162 21.4163 33.6352 8.58472 30.0988C13.4964 38.9834 26.3327 40.7025 33.3851 33.3813C39.5276 27.2398 39.5276 17.244 33.3851 11.1016Z" fill="#F8F6F1"/>
</g>
<defs>
<clipPath id="clip0_1_2768">
<rect width="44.4834" height="44.4834" fill="white" transform="matrix(-1 0 0 1 44.4844 0)"/>
</clipPath>
</defs>
</svg>
